<svg xmlns="http://www.w3.org/2000/svg" viewBox="0 0 360 300" role="img" aria-labelledby="title desc">
  <title id="title">Questle dice illustration</title>
  <desc id="desc">A simple hand-drawn die with small flowers and sparkles.</desc>
  <defs><style>.line{fill:none;stroke:#172f4a;stroke-width:4;stroke-linecap:round;stroke-linejoin:round}.thin{fill:none;stroke:#172f4a;stroke-width:2.5;stroke-linecap:round;stroke-linejoin:round}.dot{fill:#172f4a}.lav{fill:#eeeaf6;stroke:#172f4a;stroke-width:4;stroke-linecap:round;stroke-linejoin:round}.gold{fill:#f0d49a;stroke:#172f4a;stroke-width:3;stroke-linecap:round;stroke-linejoin:round}</style></defs>
  <path class="thin" d="M72 244c71 17 152 17 228 0"/>
  <path class="lav" d="M105 90l105-32 80 55-13 109-118 21-73-76z"/>
  <path class="line" d="M210 58l-7 120M290 113l-87 65M86 167l117 11"/>
  <circle class="dot" cx="151" cy="112" r="8"/><circle class="dot" cx="199" cy="95" r="8"/><circle class="dot" cx="243" cy="126" r="8"/><circle class="dot" cx="138" cy="179" r="8"/><circle class="dot" cx="216" cy="201" r="8"/><circle class="dot" cx="252" cy="175" r="8"/>
  <path class="thin" d="M58 198c13-16 26-16 39 0M271 246c11-14 23-14 34 0"/>
  <path class="gold" d="M56 158c8-14 24-14 31 0 7 15-3 29-16 29s-23-14-15-29z"/>
  <path class="thin" d="M71 187v38M58 210l13 9 13-9"/>
  <path class="gold" d="M309 178c8-13 21-13 29 0 6 13-2 25-14 25s-22-12-15-25z"/>
  <path class="thin" d="M323 203v35M309 222l14 9 13-9"/>
  <path class="thin" d="M49 93l7-13 7 13 13 7-13 7-7 13-7-13-13-7zM287 52l5-10 6 10 10 6-10 5-6 11-5-11-10-5z"/>
  <circle class="dot" cx="63" cy="62" r="3"/><circle class="dot" cx="303" cy="88" r="3"/><circle class="dot" cx="93" cy="252" r="3"/>
</svg>
