<svg xmlns="http://www.w3.org/2000/svg" viewBox="0 0 420 320" role="img" aria-label="A small cat by a window with a privacy lock">
  <defs><style>.a{fill:none;stroke:#172f4a;stroke-width:4;stroke-linecap:round;stroke-linejoin:round}.b{fill:none;stroke:#172f4a;stroke-width:2.5;stroke-linecap:round;stroke-linejoin:round}.c{fill:#eeeaf6;stroke:#172f4a;stroke-width:4;stroke-linecap:round;stroke-linejoin:round}.d{fill:#dfe8f1;stroke:#172f4a;stroke-width:4;stroke-linecap:round;stroke-linejoin:round}.e{fill:#f0d49a;stroke:#172f4a;stroke-width:4;stroke-linecap:round;stroke-linejoin:round}.f{fill:#172f4a}</style></defs>
  <path class="b" d="M55 260c93 26 206 25 310-2"/>
  <path class="a" d="M186 210c-8-60 9-98 50-119 39 19 57 58 49 119"/>
  <path class="a" d="M202 105l17-31 19 31M254 103l20-29 16 33"/>
  <path class="b" d="M201 148h-25M201 166h-28M285 148h27M286 166h30M223 192c15 10 36 10 52 0"/>
  <path class="c" d="M166 220c43-16 91-16 138 0 3 27-20 46-69 46-48 0-72-19-69-46z"/>
  <path class="e" d="M284 185h43v34h-43z"/>
  <path class="b" d="M327 194c18 0 18 17 0 17M301 181v-19M311 181v-19M321 181v-19"/>
  <path class="a" d="M88 49h172v129H88zM174 49v129M88 114h172"/>
  <path class="e" d="M215 83c-18 12-19 38 5 49-39-4-55-42-20-67 0 10 5 16 15 18z"/>
  <path class="b" d="M126 75l5-10 6 10 10 5-10 6-6 10-5-10-10-6zM221 132l4-7 4 7 7 4-7 4-4 8-4-8-7-4z"/>
  <path class="d" d="M318 205h57v58h-57z"/>
  <path class="b" d="M335 205v-16c0-16 11-27 28-27s28 11 28 27v16"/>
  <path class="b" d="M345 236c0-7 6-12 12-12s12 5 12 12c0 5-3 9-7 11v12h-10v-12c-4-2-7-6-7-11z"/>
  <circle class="f" cx="63" cy="94" r="3"/><circle class="f" cx="300" cy="66" r="3"/><circle class="f" cx="365" cy="118" r="3"/>
</svg>
